<svg viewBox="0 0 570 109" fill="none" xmlns="http://www.w3.org/2000/svg">
<path fill-rule="evenodd" clip-rule="evenodd" d="M41.5313 3.12419e-09C42 5.14085 42 10.2817 42 15.9371H17.439C19.0871 18.9665 20.7034 21.9268 22.2944 24.8406L22.2948 24.8414L22.2967 24.8448L22.2978 24.8468C25.9514 31.5382 29.4713 37.9847 32.9349 44.4614C33.8155 46.1081 34.7336 47.7435 35.6522 49.3798C38.278 54.0568 40.9083 58.7422 42.682 63.7253C45.2844 71.0367 44.9561 78.5335 40.2574 85.5881C38.0174 88.9511 35.7504 90.1445 31.9054 90.0691C24.5461 89.9247 17.1836 89.9511 9.651 89.9782H9.65005H9.64958H9.64911H9.64864C6.61975 89.989 3.56336 90 0.468657 90C0 85.3107 0 80.6215 0.468657 75.4661C9.79915 75 18.661 75 27.9396 75C25.9238 71.3691 23.9326 67.7722 21.9562 64.2021C16.5864 54.5023 11.3258 44.9995 5.97693 35.5467C4.80972 33.4839 3.37929 31.5701 1.94885 29.6562C1.29069 28.7757 0.632523 27.8951 0 27C0 21.312 0 15.6239 0.373752 9.46613C3.165 5.99759 5.5825 2.9988 8 3.12419e-09H41.5313ZM438.308 14.8926V14.8928L438.309 14.9C438.626 16.8023 438.943 18.7028 439.276 20.6005C441.451 33.0021 443.714 45.3888 446.013 57.7684C447.373 65.094 448.781 72.4106 450.218 79.8733L450.223 79.8967C450.864 83.2304 451.512 86.5933 452.163 89.9992C450.682 89.9992 449.224 90.0139 447.784 90.0284C443.91 90.0675 440.165 90.1052 436.441 89.8518C435.235 89.7698 433.86 88.0156 433.106 86.7155C432.419 85.5312 432.098 83.8761 432.258 82.5032C433.047 75.7242 428.953 75.5279 424.015 75.9589C422.658 76.0774 421.183 75.992 419.722 75.9074C416.941 75.7464 414.213 75.5884 412.445 76.8445C411.038 77.8448 410.792 80.4011 410.537 83.0478V83.0481C410.394 84.5316 410.249 86.0435 409.894 87.3256C409.6 88.3907 408.111 89.83 407.111 89.8781C403.195 90.0664 399.269 90.0414 395.244 90.0156C393.833 90.0066 392.41 89.9975 390.97 89.9975C391.824 85.4921 392.669 81.0234 393.509 76.5804L393.514 76.5528L393.517 76.5366L393.522 76.5081C395.434 66.3925 397.321 56.4102 399.237 46.4335C400.826 38.1556 402.443 29.8828 404.059 21.61L404.06 21.608L404.06 21.606L404.061 21.604L404.061 21.602L404.061 21.6001L404.062 21.5987L404.062 21.5974L404.076 21.5247C405.051 16.5348 406.026 11.5449 406.995 6.55391C407.363 4.65853 407.667 2.75064 408 0.42427C417.021 -9.5055e-07 426.042 -1.01015e-06 435.531 3.12419e-09C436.654 4.96223 437.482 9.9332 438.308 14.8926ZM418.003 38.663L414.297 61.7559H428.761C428.39 59.5291 428.022 57.3102 427.654 55.0977L427.65 55.0703C426.09 45.6782 424.549 36.4018 422.957 27.134C422.869 26.6173 422.505 26.1478 422.142 25.6782C421.973 25.4598 421.804 25.2414 421.663 25.0182C421.488 25.2578 421.283 25.4904 421.078 25.7231C420.632 26.2291 420.186 26.7351 420.055 27.3126C419.271 30.7733 418.692 34.2803 418.003 38.663ZM112.468 110C112 81.5475 112 53.0951 112 24.0013C113.109 24.0013 114.21 23.9974 115.304 23.9936L115.305 23.9936H115.305H115.305H115.305H115.305H115.305H115.305H115.305C118.54 23.9821 121.717 23.9708 124.891 24.0611C125.311 24.0731 125.709 24.3907 126.119 24.7175C126.405 24.945 126.696 25.177 127.004 25.3134C127.306 25.4475 127.644 25.6214 127.99 25.8L127.99 25.8002L127.991 25.8004L127.991 25.8006C129.025 26.3335 130.139 26.9074 130.634 26.5849C135.984 23.0991 141.834 23.5895 147.545 24.0682C148.787 24.1724 150.023 24.276 151.246 24.338C153.582 24.4564 156.518 28.0623 157.822 30.7368C166.88 49.3175 167.13 67.7738 155.708 85.5965C153.842 88.5074 151.275 90.5124 147.082 90.1247C143.267 89.7718 139.412 89.8488 135.401 89.9289C133.634 89.9641 131.837 90 130 90V109.531C124.312 110 118.624 110 112.468 110ZM130.054 75.2377L141.306 76.2817C145.8 68.4878 146.417 60.5544 145.967 52.4984C145.317 40.8724 141.508 37.3671 130.73 38.0778C130.66 38.0824 130.595 38.1612 130.448 38.3391C130.347 38.4607 130.209 38.6286 130.004 38.8507C130.004 50.3587 130.004 62.3165 130.054 75.2377ZM458 24.0013C458 53.0951 458 81.5475 458.468 110C464.624 110 470.312 110 476 109.531V90C477.836 90 479.632 89.9641 481.398 89.9289L481.399 89.9288C485.41 89.8488 489.266 89.7718 493.082 90.1247C497.275 90.5124 499.842 88.5074 501.707 85.5966C513.13 67.7738 512.88 49.3176 503.822 30.7368C502.518 28.0623 499.582 24.4564 497.246 24.338C496.023 24.276 494.787 24.1724 493.545 24.0682C487.834 23.5895 481.984 23.0991 476.634 26.5849C476.139 26.9074 475.025 26.3335 473.991 25.8005C473.644 25.6217 473.306 25.4476 473.004 25.3134C472.696 25.177 472.405 24.9451 472.119 24.7176L472.119 24.7175C471.709 24.3907 471.311 24.0731 470.891 24.0611C467.716 23.9708 464.539 23.9821 461.305 23.9935C460.211 23.9974 459.11 24.0013 458 24.0013ZM476.261 38H481.376C485.87 37.4427 487.622 38.9059 489.177 42.3575C493.172 51.2253 493.194 65.2606 487.689 75.8216H476.261V38ZM519.468 110C519 81.5512 519 53.1024 519 24.6852C528.345 22.6321 533.019 23.6071 534.876 28.1604C540.666 23.0771 547.443 23.5775 554.124 24.0709C555.733 24.1896 557.336 24.308 558.919 24.3479C560.653 24.3917 562.598 27.9008 563.954 30.3483L564.064 30.5465L564.163 30.7236C565.208 32.6039 566.158 34.5378 567.104 36.4635C568.246 38.7888 569.381 41.1021 570.674 43.2944C571 51.6876 571 60.3751 570.603 69.5353C567.476 75.2734 564.7 80.5153 562.035 85.8134C560.464 88.9355 558.181 90.2252 554.589 90.0719C550.297 89.8886 545.995 89.9273 541.618 89.9665H541.617H541.617H541.616H541.615H541.614C539.758 89.9832 537.888 90 536 90V110H519.468ZM552.483 60.0102C552.214 58.3965 551.952 56.7814 551.69 55.1662C550.91 50.3579 550.13 45.5495 549.163 40.7791C548.945 39.7053 547.356 38.2425 546.281 38.1331C543.834 37.884 541.356 37.9299 538.982 37.9738C538.084 37.9905 537.201 38.0068 536.339 38.0068V75.902C549.462 76.2576 549.707 76.146 551.854 66.2551C552.034 65.4252 552.075 64.565 552.119 63.6129V63.6124C552.169 62.5535 552.224 61.381 552.483 60.0102ZM173 24.6876C173 53.1043 173 81.5521 173.468 110C179.29 110 184.645 110 190 109.531V89.3707C191.939 89.4357 193.846 89.4852 195.731 89.5341L195.732 89.5341C200.163 89.649 204.468 89.7606 208.759 90.0634C212.207 90.3067 214.211 88.7641 216.015 86.1386C220.46 79.6698 222.9 72.6676 224.236 64.8336C226.426 51.995 223.77 40.422 217.665 29.3624C216.544 27.3305 214.529 24.2857 212.92 24.2819C211.166 24.2778 209.387 24.1633 207.604 24.0485C201.084 23.6286 194.512 23.2053 188.875 28.1691C187.022 23.6095 182.316 22.6288 173 24.6876ZM190 76V42.6254C189.619 39.0735 190.268 37.9139 193.339 37.9088C202.3 37.894 203.706 38.5399 205.718 47.4995C207.479 55.3435 206.866 63.273 204.505 70.9693C203.43 74.4749 201.444 76.9403 197.045 76.0701C195.655 75.7952 194.199 75.858 192.556 75.9288C191.753 75.9635 190.906 76 190 76ZM312.222 42H318.059H327.823L328.272 32.998L329.484 32.9802L330.395 38.1372H339C339 41.1089 338.983 44.0478 338.966 46.963C338.926 54.0539 338.886 61.0049 339.091 67.9486C339.219 72.2619 339.553 76.8927 341.245 80.741C342.798 84.2727 345.831 88.7557 349.052 89.5961C352.969 90.618 357.21 90.3994 361.445 90.181C363.22 90.0895 364.995 89.998 366.743 89.998V75.9999C366.184 75.9999 365.648 75.9797 365.129 75.9602C364.042 75.9192 363.033 75.8812 362.056 76.0387C358.661 76.586 357.2 74.1528 357.142 71.8384C356.936 63.5506 356.965 55.2569 356.995 46.8122V46.8112V46.8102C357.005 43.7937 357.016 40.7579 357.016 37.6962H366.655V23.6844H356.692V6.36084H338.675V23.7728C335.631 24.201 332.538 24.1192 329.479 24.0383C322.45 23.8525 315.604 23.6715 309.964 29.694C306.696 23.3326 304.249 22.6446 294.303 24.5781V89.6926H312.222V42ZM241.363 87.8295C234.498 79.1151 231.5 69.2502 231.139 58.8414C230.708 46.4089 234.254 34.9137 242.415 25.2101C243.097 24.3999 244.72 24.0653 245.912 24.0514C247.587 24.0319 249.263 24.0026 250.939 23.9733C257.591 23.857 264.249 23.7406 270.859 24.2334C273.348 24.419 276.307 26.9131 277.891 29.1649C285.552 40.0491 287.064 52.1799 285.186 65.2488C284.071 73.0052 281.357 79.7227 277.034 86.0599C275.234 88.6995 273.31 90.1992 269.847 90.0811C265.806 89.9433 261.761 89.9605 257.715 89.9777C254.103 89.9931 250.492 90.0085 246.883 89.9136C245.571 89.8791 244.275 89.2403 242.857 88.5417C242.375 88.3041 241.879 88.0595 241.363 87.8295ZM261.934 38.0161C261.044 38.102 260.108 38.0468 259.175 37.9919C256.168 37.8145 253.195 37.6393 251.91 42.2075C248.913 52.8636 248.709 63.3573 253.106 73.6138C253.629 74.833 256.102 75.8876 257.635 75.8401C259.778 75.7738 263.208 75.1751 263.803 73.809C268.995 61.8925 269.739 49.8919 261.934 38.0161ZM85.0044 88.4288C88.1898 88.9525 91.3753 89.4762 95.0362 90H101.728V24.27H83.8729V75.8123H72.0705C67.359 65.1286 67.682 54.0388 68.0025 43.0335C68.1858 36.7409 68.3682 30.476 67.6083 24.3304H50.9989C50.9989 28.3634 51.0146 32.3668 51.0301 36.3493C51.0669 45.7598 51.1033 55.0531 50.9315 64.3426C50.7882 72.0883 52.9065 79.041 56.9587 85.4471C58.0854 87.2284 60.0724 89.8213 61.5909 89.7719C63.6967 89.7035 65.8338 89.8474 67.974 89.9916C73.8605 90.3881 79.7706 90.7861 85.1175 86.771L85.0041 88.4287L85.0044 88.4288Z" fill="white"/>
</svg>
